# xmcd CD database file
#
# Track frame offsets:
#	182
#	15102
#	38580
#	53500
#	66630
#	78105
#	93367
#	106345
#	119892
#	134915
#	149892
#	163662
#	177547
#	189052
#	202785
#	216465
#	230880
#	245042
#	259355
#	277497
#	291882
#	304750
#	317800
#
# Disc length: 4409 seconds
#
# Revision: 0
# Processed by: cddbd v1.5.1PL0 Copyright (c) Steve Scherf et al.
# Submitted via: CDex 1.51
#
DISCID=6d113717
DTITLE=Oscar Pettiford - Bass Hits
DYEAR=1998
DGENRE=Jazz
TTITLE0=Esquire Blues
TTITLE1=The Man I Love
TTITLE2=Crazy Rhythm
TTITLE3=Disorder at the Border
TTITLE4=Pluckin' that Thing
TTITLE5=Honeysuckle Rose
TTITLE6=Jumpin' with Judy
TTITLE7=I got a date with Rhythm
TTITLE8=Honeysuckle Rose
TTITLE9=Blue Skies
TTITLE10=Kat's Fur
TTITLE11=Dee Dee's Dance
TTITLE12=Something for you
TTITLE13=Good Bait
TTITLE14=Salt Peanuts
TTITLE15=Be Bop
TTITLE16=Mop Mop
TTITLE17=Wrap your troubles in dreams
TTITLE18=Frankie and Johnny (Part 1)
TTITLE19=Frankie and Johnny (Part 2)
TTITLE20=Suddenly it jumped
TTITLE21=Swamp Fire
TTITLE22=Don't drive this Jive away
EXTD=YEAR: 1998
EXTT0=
EXTT1=
EXTT2=
EXTT3=
EXTT4=
EXTT5=
EXTT6=
EXTT7=
EXTT8=
EXTT9=
EXTT10=
EXTT11=
EXTT12=
EXTT13=
EXTT14=
EXTT15=
EXTT16=
EXTT17=
EXTT18=
EXTT19=
EXTT20=
EXTT21=
EXTT22=
PLAYORDER=
